# xmcd CD database file
#
# Track frame offsets:
#	150
#	12837
#	30897
#	43165
#	55185
#	70237
#	82265
#	94312
#	109280
#	134262
#	147775
#	160027
#	174220
#	186910
#	198935
#	209720
#	221262
#	231655
#	241507
#	254367
#	266447
#	276950
#	287737
#	298092
#
# Disc length: 4100 seconds
#
# Revision: 1
# Processed by: cddbd v1.5.1PL0 Copyright (c) Steve Scherf et al.
# Submitted via: CDex 1.51
#
DISCID=68100218
DTITLE=Boby Hacket - Complete Capitol Solo Sessions DISC 3
DYEAR=2001
DGENRE=Jazz
TTITLE0=At The Jazz Band Ball
TTITLE1=Lazy Mood
TTITLE2=Wolverine Blues
TTITLE3=The Continental
TTITLE4=Rose Room
TTITLE5=In A Little Spanish Town
TTITLE6=Cornet Chop Suey
TTITLE7=Caravan
TTITLE8=Tin Roof Blues
TTITLE9=Albatross
TTITLE10=Henry Hudson
TTITLE11=It Don't Mean A Thing
TTITLE12=Paradise
TTITLE13=Spring, Beautiful Spring
TTITLE14=C'est Magnifique
TTITLE15=I'll See You In My Dreams
TTITLE16=It's Been So Long
TTITLE17=That Naughty Waltz
TTITLE18=Cheek To Cheek
TTITLE19=If I Had My Way
TTITLE20=My Monday Date
TTITLE21=If You Were There
TTITLE22=All Of You
TTITLE23=Rosalie
EXTD=YEAR: 2001
EXTT0=
EXTT1=
EXTT2=
EXTT3=
EXTT4=
EXTT5=
EXTT6=
EXTT7=
EXTT8=
EXTT9=
EXTT10=
EXTT11=
EXTT12=
EXTT13=
EXTT14=
EXTT15=
EXTT16=
EXTT17=
EXTT18=
EXTT19=
EXTT20=
EXTT21=
EXTT22=
EXTT23=
PLAYORDER=
